<svg width="83" height="83" viewBox="0 0 83 83" fill="none" xmlns="http://www.w3.org/2000/svg">
<path d="M59.2043 34.3038C60.1806 33.3275 60.1806 31.7445 59.2043 30.7682C58.2279 29.7919 56.645 29.7919 55.6687 30.7682L37.1845 49.2525L27.6643 39.7322C26.6879 38.7559 25.105 38.7559 24.1287 39.7322C23.1524 40.7085 23.1524 42.2915 24.1287 43.2678L35.4167 54.5558C36.393 55.5321 37.9759 55.5321 38.9523 54.5558L59.2043 34.3038Z" fill="#62B246"/>
<path fill-rule="evenodd" clip-rule="evenodd" d="M83 41.5C83 64.4198 64.4198 83 41.5 83C18.5802 83 0 64.4198 0 41.5C0 18.5802 18.5802 0 41.5 0C64.4198 0 83 18.5802 83 41.5ZM79 41.5C79 62.2107 62.2107 79 41.5 79C20.7893 79 4 62.2107 4 41.5C4 20.7893 20.7893 4 41.5 4C62.2107 4 79 20.7893 79 41.5Z" fill="#62B246"/>
</svg>
