<svg width="352" height="119" viewBox="0 0 352 119" fill="none" xmlns="http://www.w3.org/2000/svg">
<path d="M255.039 118.701C242.784 118.701 230.103 112.67 221.143 102.55L229.455 95.1865C236.342 102.957 245.913 107.601 255.039 107.601C265.147 107.601 274.625 103.123 281.068 95.3345L289.639 102.402C281.068 112.762 268.461 118.701 255.039 118.701Z" fill="#62B246"/>
<path d="M130.117 42.57C125.248 37.4823 119.379 34.9292 112.53 34.9292C104.94 34.9292 99.1082 37.7598 95.054 43.4211V36.2242H84.2612V106.102H95.054V79.0538C99.1082 84.641 104.94 87.4347 112.53 87.4347C119.379 87.4347 125.248 84.9186 130.117 79.8493C134.967 74.7986 137.392 68.5823 137.392 61.1819C137.392 53.8741 134.967 47.6578 130.117 42.57ZM122.119 72.6155C119.12 75.6496 115.362 77.1667 110.827 77.1667C106.31 77.1667 102.533 75.6496 99.5525 72.6155C96.5535 69.5998 95.054 65.7886 95.054 61.1819C95.054 56.5937 96.5535 52.7825 99.5525 49.7484C102.533 46.7327 106.31 45.2157 110.827 45.2157C115.362 45.2157 119.12 46.7327 122.119 49.7484C125.118 52.7825 126.618 56.5937 126.618 61.1819C126.618 65.7886 125.118 69.5998 122.119 72.6155Z" fill="#3356A6"/>
<path d="M195.836 61.2929C195.836 53.9666 193.485 47.7503 188.801 42.6255C184.099 37.5008 178.083 34.9292 170.77 34.9292C163.032 34.9292 156.719 37.4453 151.795 42.4775C146.852 47.4913 144.39 53.7446 144.39 61.1819C144.39 68.7673 146.889 75.0391 151.887 79.9973C156.886 84.9556 163.439 87.4347 171.566 87.4347C181.211 87.4347 188.505 83.8085 193.448 76.5562L184.544 71.3759C181.693 75.5016 177.398 77.5552 171.659 77.5552C167.531 77.5552 164.032 76.5377 161.181 74.5211C158.311 72.486 156.479 69.5813 155.682 65.7886H195.429C195.707 63.9201 195.836 62.4215 195.836 61.2929ZM155.571 57.0007C156.312 53.208 158.015 50.2109 160.681 48.0093C163.347 45.8077 166.66 44.7161 170.659 44.7161C174.195 44.7161 177.268 45.7522 179.897 47.8058C182.526 49.8779 184.21 52.9305 184.951 57.0007H155.571Z" fill="#3356A6"/>
<path d="M241.784 69.1743C240.581 71.5054 238.804 73.374 236.434 74.7616C234.083 76.1677 231.436 76.8707 228.492 76.8707C224.105 76.8707 220.421 75.3536 217.459 72.375C214.497 69.3778 213.016 65.6406 213.016 61.1819C213.016 56.7232 214.497 53.0045 217.459 50.0074C220.421 47.0102 224.105 45.5117 228.492 45.5117C231.491 45.5117 234.139 46.1962 236.434 47.5653C238.73 48.9343 240.451 50.8029 241.581 53.208L250.874 47.8058C248.875 43.8836 245.876 40.7569 241.877 38.4258C237.897 36.0947 233.454 34.9292 228.603 34.9292C221.069 34.9292 214.793 37.4453 209.776 42.4775C204.741 47.4913 202.223 53.7446 202.223 61.1819C202.223 68.5823 204.741 74.7986 209.776 79.8493C214.793 84.9186 221.069 87.4347 228.603 87.4347C233.454 87.4347 237.897 86.2691 241.877 83.9565C245.876 81.6254 248.949 78.4618 251.078 74.4656L241.784 69.1743Z" fill="#3356A6"/>
<path d="M300.376 42.5145C295.267 37.4638 289.028 34.9292 281.642 34.9292C274.311 34.9292 268.091 37.4638 262.963 42.5145C257.835 47.5838 255.261 53.8001 255.261 61.1819C255.261 68.5823 257.835 74.7986 262.963 79.8493C268.091 84.9186 274.311 87.4347 281.642 87.4347C289.028 87.4347 295.267 84.9186 300.376 79.8493C305.467 74.7986 308.004 68.5823 308.004 61.1819C308.004 53.8001 305.467 47.5838 300.376 42.5145ZM296.118 64.9746H285.529V75.5571H277.902V64.9746H267.313V57.3522H277.902V46.7697H285.529V57.3522H296.118V64.9746Z" fill="#3356A6"/>
<path d="M313.613 81.5514C312.965 80.9039 312.187 80.5709 311.262 80.5709C310.318 80.5709 309.522 80.9039 308.892 81.5514C308.244 82.1989 307.929 82.976 307.929 83.901C307.929 84.8076 308.263 85.6031 308.911 86.2506C309.559 86.8981 310.355 87.2312 311.262 87.2312C312.187 87.2312 312.965 86.8981 313.613 86.2506C314.261 85.6031 314.594 84.8076 314.594 83.901C314.594 82.976 314.261 82.1989 313.613 81.5514Z" fill="#3356A6"/>
<path d="M335.513 64.4936V67.6388C333.717 65.1596 331.126 63.9201 327.756 63.9201C324.702 63.9201 322.092 65.0486 319.926 67.2872C317.76 69.5443 316.686 72.301 316.686 75.5941C316.686 78.8503 317.76 81.6069 319.926 83.8825C322.092 86.1397 324.702 87.2682 327.756 87.2682C331.126 87.2682 333.717 86.0101 335.513 83.494V86.6947H340.326V64.4936H335.513ZM333.514 80.6819C332.199 82.0324 330.515 82.6985 328.497 82.6985C326.497 82.6985 324.813 82.0324 323.48 80.6819C322.147 79.3313 321.481 77.6292 321.481 75.5941C321.481 73.559 322.147 71.857 323.48 70.5064C324.813 69.1558 326.497 68.4898 328.497 68.4898C330.515 68.4898 332.199 69.1558 333.514 70.5064C334.865 71.857 335.513 73.559 335.513 75.5941C335.513 77.6292 334.865 79.3313 333.514 80.6819Z" fill="#3356A6"/>
<path d="M350.49 55.9462C349.897 55.3357 349.175 55.0396 348.324 55.0396C347.454 55.0396 346.732 55.3357 346.139 55.9462C345.547 56.5567 345.251 57.2782 345.251 58.0923C345.251 58.9248 345.547 59.6464 346.158 60.2569C346.769 60.8674 347.491 61.1634 348.324 61.1634C349.138 61.1634 349.86 60.8674 350.471 60.2569C351.082 59.6464 351.378 58.9248 351.378 58.0923C351.378 57.2782 351.082 56.5567 350.49 55.9462ZM345.917 64.4936V86.6946H350.712V64.4936H345.917Z" fill="#3356A6"/>
<path d="M68.5996 49.9704C64.8045 47.0473 60.269 45.5117 55.5112 45.5117L25.7987 45.1972H22.0776C19.1897 45.1972 16.4313 44.0871 14.3024 42.1075C12.2475 40.1649 10.9887 37.5378 10.785 34.7442C10.7665 34.4482 10.748 34.1521 10.748 33.8746C10.748 30.1374 12.5992 26.6593 15.6723 24.5317C17.5606 23.2366 19.7821 22.5706 22.0776 22.5706H30.2602C30.3157 22.7556 30.3713 22.9591 30.4268 23.1626C31.2969 25.9007 32.9075 28.3799 35.0734 30.304C37.9984 32.8386 41.6824 34.2261 45.4775 34.2261H61.0465C65.7116 34.2261 70.1546 32.08 73.3018 28.2689L75.5048 24.7352C75.7825 24.1062 76.0046 23.4586 76.2267 22.7186L76.2453 22.6076C76.3749 22.1636 76.4859 21.701 76.5415 21.2755L76.9302 19.1664H66.6743L66.4151 20.073C66.2485 20.665 66.0078 21.146 65.7116 21.553L65.4154 22.0156C64.3047 23.3291 62.7311 24.0877 61.0465 24.0877H45.4775C45.2553 24.0877 45.0332 24.0507 44.7925 24.0137C43.1449 23.8286 41.7009 22.9221 40.8123 21.59L40.5531 21.1275C40.2569 20.6095 40.0533 20.0545 39.9607 19.4809C39.9052 19.1664 39.8682 18.7964 39.8682 18.4634V15.9658C39.8682 15.7623 39.8682 15.5772 39.9052 15.3367C39.9978 14.4487 40.294 13.6347 40.7938 12.8761C41.7009 11.4885 43.1819 10.582 44.9036 10.3785C45.0517 10.36 45.2183 10.36 45.3664 10.36C45.4034 10.36 61.0465 10.36 61.0465 10.36C62.7311 10.36 64.3047 11.1 65.4525 12.4506C65.8968 13.0426 66.2485 13.7087 66.4336 14.3562L66.6928 15.3552H76.9487L76.56 13.2276C76.3563 12.0251 76.0046 10.878 75.5048 9.67546C72.9871 3.92168 67.3037 0.203003 61.0465 0.203003H45.4775C45.1998 0.203003 44.9221 0.203003 44.6074 0.221504L44.3297 0.240004C41.812 0.425013 39.3498 1.23905 37.1839 2.55262C36.1286 3.23715 35.1845 3.99569 34.3514 4.82823C32.278 6.90033 30.7785 9.56445 30.1121 12.4136H22.0776C10.2296 12.4136 0.603134 22.0341 0.603134 33.8746C0.603134 34.2816 0.603135 34.6887 0.621647 35.0772C0.86231 39.0364 2.1767 42.8291 4.41671 46.0482C5.65705 47.8613 7.17508 49.4709 8.95228 50.8769C9.80385 51.506 10.5073 51.9685 11.1368 52.32C14.4505 54.2811 18.153 55.3172 21.837 55.3172L25.7987 55.6502L52.6048 55.6317L59.51 56.4087C63.8789 58.0738 66.8039 62.292 66.8039 66.9727C66.8039 73.2075 61.7129 78.2768 55.4742 78.2768H27.5574C26.7798 76.1862 25.4469 74.2436 23.7808 72.7635C21.3186 70.5619 18.116 69.3038 14.7837 69.2483H14.506C6.84185 69.2483 0.603134 75.4646 0.603134 83.1425C0.603134 90.8019 6.84185 97.0552 14.506 97.0552C20.2819 97.0552 25.2618 93.688 27.3907 88.4338H55.4742C67.3222 88.4338 76.9487 78.7948 76.9487 66.9727C76.9487 61.3114 74.7828 56.0017 70.8211 51.9685C70.1361 51.284 69.3956 50.6179 68.5996 49.9704ZM14.506 87.4717C12.1179 87.4717 10.1926 85.5291 10.1926 83.1425C10.1926 80.7559 12.1179 78.8318 14.506 78.8318C16.8941 78.8318 18.838 80.7559 18.838 83.1425C18.838 85.5291 16.8941 87.4717 14.506 87.4717Z" fill="#3356A6"/>
</svg>
